<?xml version="1.0" encoding="UTF-8"?>
<svg enable-background="new 0 0 60 60" version="1.1" viewBox="0 0 60 60" xml:space="preserve" xmlns="http://www.w3.org/2000/svg">
<style type="text/css">
	.st0{fill:none;}
	.st1{fill:#22ADF6;}
</style>
<rect class="st0" width="60" height="60"/>
<path class="st1" d="m57.8 35.9-5.4-23.5c-0.3-1.3-1.5-2.6-2.8-2.9l-24.6-7.7c-0.3-0.1-0.7-0.1-1-0.1-1 0-2.1 0.4-2.9 1l-17.7 16.5c-1 0.9-1.5 2.6-1.2 3.8l5.8 25.1c0.3 1.3 1.5 2.6 2.8 2.9l23.1 7.1c0.3 0.1 0.7 0.1 1 0.1 1 0 2.1-0.4 2.9-1l18.9-17.6c0.9-0.8 1.4-2.4 1.1-3.7zm-30.3-28.5 16.9 5.2c0.7 0.2 0.7 0.5 0 0.7l-8.9 2c-0.7 0.2-1.6-0.1-2.1-0.6l-6.1-6.7c-0.6-0.6-0.4-0.8 0.2-0.6zm10.6 30.4c0.2 0.7-0.2 1-0.9 0.9l-18.3-5.7c-0.7-0.2-0.8-0.7-0.3-1.2l14-13c0.5-0.5 1-0.3 1.2 0.4l4.3 18.6zm-30.1-16.6 14.8-13.8c0.5-0.5 1.3-0.4 1.8 0.1l7.4 8c0.5 0.5 0.4 1.3-0.1 1.8l-14.8 13.8c-0.5 0.5-1.3 0.4-1.8-0.1l-7.4-8c-0.5-0.6-0.4-1.4 0.1-1.8zm3.6 21.9-3.9-17.2c-0.2-0.7 0.1-0.8 0.6-0.3l6.2 6.7c0.5 0.5 0.7 1.5 0.5 2.1l-2.7 8.7c-0.3 0.7-0.6 0.7-0.7 0zm21.7 10.1-19.4-6c-0.7-0.2-1-0.9-0.9-1.6l3.3-10.4c0.2-0.7 0.9-1 1.6-0.9l19.4 6c0.7 0.2 1 0.9 0.9 1.6l-3.3 10.4c-0.2 0.7-0.9 1.1-1.6 0.9zm17.2-14.1-12.9 12c-0.5 0.5-0.7 0.3-0.6-0.4l2.7-8.7c0.2-0.7 0.9-1.4 1.6-1.5l8.9-2c0.7-0.2 0.8 0.1 0.3 0.6zm1.4-2.6-10.7 2.5c-0.7 0.2-1.4-0.2-1.5-0.9l-4.5-19.8c-0.2-0.7 0.2-1.4 0.9-1.5l10.7-2.5c0.7-0.2 1.4 0.2 1.5 0.9l4.5 19.8c0.2 0.7-0.2 1.4-0.9 1.5z"/>
</svg>
